<?xml version="1.0" encoding="UTF-8" standalone="no"?>
<svg width="2177px" height="466px" viewBox="0 0 2177 466" version="1.1" xmlns="http://www.w3.org/2000/svg" xmlns:xlink="http://www.w3.org/1999/xlink" xmlns:sketch="http://www.bohemiancoding.com/sketch/ns">
    <!-- Generator: Sketch 3.2.1 (9971) - http://www.bohemiancoding.com/sketch -->
    <title>Slice 4</title>
    <desc>Created with Sketch.</desc>
    <defs></defs>
    <g id="Page-1" stroke="none" stroke-width="1" fill="none" fill-rule="evenodd" sketch:type="MSPage">
        <path d="M1363.14493,50 L1607.85507,50 L1623,117 L1348,117 L1363.14493,50 Z" id="Rectangle-2" fill="#D5D5D5" sketch:type="MSShapeGroup" transform="translate(1485.500000, 83.500000) scale(1, -1) translate(-1485.500000, -83.500000) "></path>
        <path d="M93.85,459 L93.85,0.1 L0.25,13.1 L0.25,459 L93.85,459 Z M271.95,102.8 L271.95,3.35 L178.35,3.35 L178.35,102.8 L271.95,102.8 Z M271.95,459 L271.95,142.45 L178.35,142.45 L178.35,459 L271.95,459 Z M635.95,142.45 L541.05,142.45 L476.7,366.7 L412.35,142.45 L317.45,142.45 L416.9,459 L536.5,459 L635.95,142.45 Z M929.1,333.55 L929.1,267.25 C929.1,198.35 906.35,135.95 801.05,135.95 C695.75,135.95 665.2,194.45 665.2,262.7 L665.2,336.8 C665.2,414.8 704.2,465.5 806.9,465.5 C851.1,465.5 897.25,455.75 925.85,445.35 L912.2,375.15 C884.25,383.6 845.25,388.8 816,388.8 C773.1,388.8 758.8,379.05 758.8,342.65 L758.8,333.55 L929.1,333.55 Z M840.7,263.35 L758.8,263.35 L758.8,249.7 C758.8,227.6 769.2,209.4 801.7,209.4 C834.2,209.4 840.7,227.6 840.7,249.7 L840.7,263.35 Z M1275.55,459 L1275.55,237.35 C1275.55,176.25 1256.7,135.95 1202.75,135.95 C1166.35,135.95 1115.65,147.65 1076.65,166.5 L1066.9,142.45 L997.35,142.45 L997.35,459 L1090.95,459 L1090.95,249.7 C1111.1,238.65 1142.3,226.95 1159.2,226.95 C1175.45,226.95 1181.95,235.4 1181.95,249.7 L1181.95,459 L1275.55,459 Z M1483.55,465.5 C1596,465.5 1626.55,402.45 1626.55,337.45 L1626.55,264 C1626.55,199 1596,135.95 1483.55,135.95 C1371.1,135.95 1340.55,199 1340.55,264 L1340.55,337.45 C1340.55,402.45 1371.1,465.5 1483.55,465.5 L1483.55,465.5 Z M1483.55,386.85 C1449.75,386.85 1434.15,369.95 1434.15,340.05 L1434.15,261.4 C1434.15,231.5 1449.75,214.6 1483.55,214.6 C1517.35,214.6 1532.95,231.5 1532.95,261.4 L1532.95,340.05 C1532.95,369.95 1517.35,386.85 1483.55,386.85 L1483.55,386.85 Z M1868.35,453.8 L1857.3,382.95 C1843.65,387.5 1828.7,388.8 1818.3,388.8 C1806.6,388.8 1798.8,384.25 1798.8,371.25 L1798.8,217.85 L1865.75,217.85 L1870.95,142.45 L1798.8,142.45 L1798.8,53.4 L1705.2,66.4 L1705.2,142.45 L1662.3,142.45 L1662.3,217.85 L1705.2,217.85 L1705.2,384.25 C1705.2,442.75 1740.3,465.5 1800.75,465.5 C1822.2,465.5 1847.55,460.95 1868.35,453.8 L1868.35,453.8 Z M2176.45,333.55 L2176.45,267.25 C2176.45,198.35 2153.7,135.95 2048.4,135.95 C1943.1,135.95 1912.55,194.45 1912.55,262.7 L1912.55,336.8 C1912.55,414.8 1951.55,465.5 2054.25,465.5 C2098.45,465.5 2144.6,455.75 2173.2,445.35 L2159.55,375.15 C2131.6,383.6 2092.6,388.8 2063.35,388.8 C2020.45,388.8 2006.15,379.05 2006.15,342.65 L2006.15,333.55 L2176.45,333.55 Z M2088.05,263.35 L2006.15,263.35 L2006.15,249.7 C2006.15,227.6 2016.55,209.4 2049.05,209.4 C2081.55,209.4 2088.05,227.6 2088.05,249.7 L2088.05,263.35 Z" id="livenote" fill="#3EC0FF" sketch:type="MSShapeGroup"></path>
    </g>
</svg>